<svg version="1.1" id="Layer_1" xmlns="http://www.w3.org/2000/svg" xmlns:xlink="http://www.w3.org/1999/xlink" x="0px" y="0px" viewBox="0 0 155.1 70.3" style="enable-background:new 0 0 155.1 70.3;" xml:space="preserve"><style type="text/css">.st0{fill:#000000;}</style><path class="st0" d="M71.1,50.7l20.2-3.1l15.2-22.9H84.6c-0.1,0-0.1,0.1-0.1,0.1c0,0,0.1,0.1,0.1,0.1c0.9,0.4,2.4,1.8-0.4,6.1 L71.1,50.7z"/><path class="st0" d="M110.6,24.7h-2.6c-0.1,0-0.1,0.1-0.1,0.1c0,0,0.1,0.1,0.1,0.1c0.9,0.4,2.4,1.8-0.4,6.1L97.3,46.6l-0.1,0.1 l13.6-2.1c1.4-0.3,2.7-0.6,3.9-1.3c3.8-2.1,6.4-5.2,8.7-8.8l6.5-9.8H110.6z"/><path class="st0" d="M45,54.7l20.2-3.1l17.9-26.9H2.1c-0.4,0-0.7,0.1-0.7,0.5c0,0.2,0.2,0.4,0.6,0.5l56,9.2L45,54.7z"/><polygon class="st0" points="24.5,33.4 0,70.3 32.6,65.3 50.7,38 "/><path class="st0" d="M71.4,0H60.7C53,0.4,47.3,3.2,42.7,6.9c-3.5,2.8-6.4,6.3-9,10l-2.3,3.5h93.6c5.5-0.2,9.6-1.4,13.5-3.5 c6.2-3.4,10.7-8.3,14.5-13.9l2.1-3.2C154.1,0,71.4,0,71.4,0"/><path class="st0" d="M71.1,50.7l20.2-3.1l15.2-22.9H84.6c-0.1,0-0.1,0.1-0.1,0.1c0,0,0.1,0.1,0.1,0.1c0.9,0.4,2.4,1.8-0.4,6.1 L71.1,50.7z"/><path class="st0" d="M110.6,24.7h-2.6c-0.1,0-0.1,0.1-0.1,0.1c0,0,0.1,0.1,0.1,0.1c0.9,0.4,2.4,1.8-0.4,6.1L97.3,46.6l-0.1,0.1 l13.6-2.1c1.4-0.3,2.7-0.6,3.9-1.3c3.8-2.1,6.4-5.2,8.7-8.8l6.5-9.8H110.6z"/><path class="st0" d="M45,54.7l20.2-3.1l17.9-26.9H2.2c-0.4,0-0.7,0.1-0.7,0.5c0,0.2,0.2,0.4,0.6,0.5l56,9.2L45,54.7z"/><polygon class="st0" points="24.5,33.4 0,70.3 32.6,65.3 50.7,38 "/><path class="st0" d="M71.4,0H60.7C53,0.4,47.3,3.2,42.7,6.9c-3.5,2.8-6.4,6.3-9,10l-2.3,3.5h93.6c5.5-0.2,9.6-1.4,13.5-3.5 c6.2-3.4,10.7-8.3,14.5-13.9l2.1-3.2C154.1,0,71.4,0,71.4,0"/></svg>
